<svg width="87" height="105" viewBox="0 0 87 105" fill="none" xmlns="http://www.w3.org/2000/svg">
<path d="M63.2769 70.4631C62.5896 70.4631 61.9093 70.4327 61.2373 70.3736V84.3177H4.69736V17.4957H61.2373V28.7839C61.9093 28.7248 62.5896 28.6944 63.2769 28.6944C63.9642 28.6944 64.6444 28.7248 65.3165 28.7839V10.063C65.3165 4.6532 60.8987 0.251953 55.4685 0.251953H10.4662C5.03594 0.251953 0.618164 4.6532 0.618164 10.063V94.85C0.618164 100.27 5.02757 104.679 10.4476 104.679H55.4871C60.9071 104.679 65.3165 100.27 65.3165 94.85V70.3736C64.6447 70.4329 63.9642 70.4631 63.2769 70.4631ZM4.69736 10.063C4.69736 6.90227 7.28521 4.33115 10.4662 4.33115H55.4685C58.6495 4.33115 61.2373 6.90227 61.2373 10.063V13.4165H4.69736V10.063ZM61.2373 94.85C61.2373 98.0208 58.6578 100.6 55.4871 100.6H10.4476C7.27705 100.6 4.69736 98.0208 4.69736 94.85V88.3969H61.2373V94.85Z" fill="black"/>
<path d="M31.6077 96.5382H34.327C35.4535 96.5382 36.3666 95.6249 36.3666 94.4986C36.3666 93.3721 35.4535 92.459 34.327 92.459H31.6077C30.4812 92.459 29.5681 93.3721 29.5681 94.4986C29.5681 95.6249 30.4812 96.5382 31.6077 96.5382Z" fill="black"/>
<path d="M63.2768 26.6548C50.6162 26.6548 40.353 36.9182 40.353 49.5788C40.353 54.605 41.9706 59.2531 44.7134 63.0314L40.353 71.8072L53.0236 70.0874C56.1089 71.6328 59.5913 72.5027 63.2768 72.5027C75.9374 72.5027 86.2009 62.2393 86.2009 49.5788C86.2009 36.9184 75.9374 26.6548 63.2768 26.6548Z" fill="#00C8FF"/>
<path d="M65.4642 55.5124H65.3165V47.983H65.4642C66.5906 47.983 67.5038 47.0697 67.5038 45.9434C67.5038 44.8171 66.5906 43.9038 65.4642 43.9038H61.0898C59.9634 43.9038 59.0502 44.8171 59.0502 45.9434C59.0502 47.0697 59.9634 47.983 61.0898 47.983H61.2375V55.5124H61.0898C59.9634 55.5124 59.0502 56.4257 59.0502 57.552C59.0502 58.6782 59.9634 59.5916 61.0898 59.5916H65.4642C66.5906 59.5916 67.5038 58.6782 67.5038 57.552C67.5038 56.4257 66.5906 55.5124 65.4642 55.5124Z" fill="white"/>
</svg>
