<svg width="104" height="104" viewBox="0 0 104 104" fill="none" xmlns="http://www.w3.org/2000/svg">
<g clip-path="url(#clip0_2_189)">
<path d="M45.8327 62.512V43.6035C45.8327 42.4816 44.9233 41.5722 43.8015 41.5722H38.1581V40.5101C38.1581 36.7803 35.1077 33.7456 31.3585 33.7456C27.6092 33.7456 24.559 36.7801 24.559 40.5101V41.5722H18.95C17.8281 41.5722 16.9187 42.4816 16.9187 43.6035V62.512C16.9187 66.0242 19.7761 68.8816 23.2883 68.8816H39.4633C42.9754 68.8816 45.8327 66.0242 45.8327 62.512V62.512ZM28.6217 40.5103C28.6217 39.0204 29.8496 37.8083 31.3587 37.8083C32.8679 37.8083 34.0958 39.0204 34.0958 40.5103V41.5724H28.6217V40.5103ZM20.9812 62.512V45.6347H24.5592V47.67C24.5592 48.7917 25.4686 49.7013 26.5905 49.7013C27.7124 49.7013 28.6217 48.7917 28.6217 47.67V45.6347H34.0958V47.67C34.0958 48.7917 35.0052 49.7013 36.127 49.7013C37.2489 49.7013 38.1583 48.7917 38.1583 47.67V45.6347H41.7704V62.512C41.7704 63.7841 40.7355 64.8191 39.4635 64.8191H23.2883C22.0161 64.8191 20.9812 63.7841 20.9812 62.512Z" fill="black"/>
<path d="M101.969 75.9619H100.063V17.3906C100.063 12.8268 96.3499 9.11386 91.7861 9.11386H12.2139C7.65009 9.11386 3.93717 12.8268 3.93717 17.3906V75.9619H2.03125C0.909391 75.9619 0 76.8715 0 77.9931V85.5912C0 90.7165 4.16955 94.8862 9.2948 94.8862H94.705C99.8302 94.8862 104 90.7167 104 85.5912V77.9931C104 76.8713 103.091 75.9619 101.969 75.9619ZM12.2139 13.1764H91.7861C94.1098 13.1764 96.0003 15.0668 96.0003 17.3906V23.0448H7.99967V17.3906C7.99967 15.0668 9.89016 13.1764 12.2139 13.1764V13.1764ZM7.99967 27.1073H96.0003V75.9619H66.7028C65.5809 75.9619 64.6715 76.8715 64.6715 77.9931C64.6715 79.2905 63.6161 80.3459 62.3187 80.3459H41.6812C40.3839 80.3459 39.3285 79.2905 39.3285 77.9931C39.3285 76.8715 38.4191 75.9619 37.2972 75.9619H7.99967V27.1073ZM99.9375 85.5912C99.9375 88.4764 97.5902 90.8237 94.7052 90.8237H9.2948C6.40961 90.8237 4.0625 88.4764 4.0625 85.5912V80.0244H35.5954C36.4471 82.5691 38.8533 84.4084 41.681 84.4084H62.3187C65.1465 84.4084 67.5529 82.5691 68.4044 80.0244H99.9375V85.5912Z" fill="black"/>
<path d="M50.859 19.902H53.1409C54.2628 19.902 55.1722 18.9924 55.1722 17.8708C55.1722 16.7491 54.2628 15.8395 53.1409 15.8395H50.859C49.7371 15.8395 48.8278 16.7491 48.8278 17.8708C48.8278 18.9924 49.7371 19.902 50.859 19.902Z" fill="black"/>
<path d="M55.3624 55.2268H87.9032V65.4397H55.3624V55.2268Z" fill="#00C8FF"/>
<path d="M55.3624 37.4569H87.9032V47.6698H55.3624V37.4569Z" fill="#00C8FF"/>
</g>
<defs>
<clipPath id="clip0_2_189">
<rect width="104" height="104" fill="white"/>
</clipPath>
</defs>
</svg>
