<svg width="104" height="103" viewBox="0 0 104 103" fill="none" xmlns="http://www.w3.org/2000/svg">
<g clip-path="url(#clip0_2_145)">
<path d="M73.8313 54.6077H96.5312V75.8331H73.8313V54.6077Z" fill="#00C8FF"/>
<path d="M7.79743 54.6077H30.4974V75.8331H7.79743V54.6077Z" fill="#00C8FF"/>
<path d="M41.5493 54.6077H62.7793V89.3419H41.5493V54.6077Z" fill="#00C8FF"/>
<path d="M95.8333 11.35H8.49535C4.30542 11.35 0.896729 14.7589 0.896729 18.9486V33.5697C0.896729 37.2557 2.85952 40.4918 5.79479 42.288V90.0041C5.79479 91.1102 6.69137 92.0067 7.79743 92.0067H96.5312C97.6373 92.0067 98.5339 91.1102 98.5339 90.0041V42.288C101.469 40.4918 103.432 37.2557 103.432 33.5697V18.9486C103.432 14.7589 100.023 11.35 95.8333 11.35ZM83.005 33.5697C83.005 36.9928 80.2201 39.7777 76.7968 39.7777C73.3735 39.7777 70.5886 36.9928 70.5886 33.5697V15.3553H83.005V33.5697ZM66.5833 33.5697C66.5833 36.9928 63.7985 39.7777 60.3752 39.7777C56.9518 39.7777 54.167 36.9928 54.167 33.5697V15.3553H66.5833V33.5697ZM50.1617 33.5697C50.1617 36.9928 47.3768 39.7777 43.9535 39.7777C40.5302 39.7777 37.7453 36.9928 37.7453 33.5697V15.3553H50.1617V33.5697ZM33.74 33.5697C33.74 36.9928 30.9552 39.7777 27.5319 39.7777C24.1085 39.7777 21.3237 36.9928 21.3237 33.5697V15.3553H33.74V33.5697ZM4.90201 18.9486C4.90201 16.9672 6.51414 15.3553 8.49535 15.3553H17.3184V33.5697C17.3184 36.9928 14.5335 39.7777 11.1102 39.7777C7.68688 39.7777 4.90201 36.9928 4.90201 33.5697V18.9486ZM94.5286 88.0015H9.80007V43.6994C10.229 43.7545 10.6664 43.7831 11.1102 43.7831C14.4714 43.7831 17.4588 42.151 19.321 39.6377C21.1833 42.151 24.1706 43.7831 27.5319 43.7831C30.8931 43.7831 33.8804 42.151 35.7427 39.6377C37.6049 42.151 40.5923 43.7831 43.9535 43.7831C47.3147 43.7831 50.3021 42.151 52.1643 39.6377C54.0266 42.151 57.0139 43.7831 60.3752 43.7831C63.7364 43.7831 66.7237 42.151 68.586 39.6377C70.4482 42.151 73.4356 43.7831 76.7968 43.7831C80.1581 43.7831 83.1454 42.151 85.0076 39.6377C86.8699 42.151 89.8572 43.7831 93.2185 43.7831C93.6623 43.7831 94.0996 43.7547 94.5286 43.6994V88.0015ZM99.4267 33.5697C99.4267 36.9928 96.6418 39.7777 93.2185 39.7777C89.7952 39.7777 87.0103 36.9928 87.0103 33.5697V15.3553H95.8333C97.8147 15.3553 99.4267 16.9672 99.4267 18.9486V33.5697Z" fill="black"/>
</g>
<defs>
<clipPath id="clip0_2_145">
<rect width="102.535" height="102.535" fill="white" transform="translate(0.896729 0.410767)"/>
</clipPath>
</defs>
</svg>
